<svg width="24" height="24" viewBox="0 0 24 24" fill="none" xmlns="http://www.w3.org/2000/svg">
<path d="M12 22.8C6.03535 22.8 1.19995 17.9646 1.19995 12C1.19995 6.03541 6.03535 1.20001 12 1.20001C17.9646 1.20001 22.7999 6.03541 22.7999 12C22.7999 17.9646 17.9646 22.8 12 22.8Z" fill="#368CFE"/>
<path d="M17.8014 14.5704H12.9743C12.9221 14.5703 12.872 14.5497 12.8347 14.5132C12.7974 14.4767 12.7758 14.427 12.7745 14.3748V13.911C12.7752 13.8586 12.7966 13.8086 12.834 13.7719C12.8715 13.7353 12.9219 13.7149 12.9743 13.7154H17.8014C17.9094 13.7154 17.9988 13.803 18 13.911V14.3748C17.9998 14.4007 17.9946 14.4263 17.9845 14.4502C17.9744 14.474 17.9597 14.4957 17.9413 14.5138C17.9228 14.532 17.901 14.5464 17.877 14.5561C17.853 14.5658 17.8273 14.5707 17.8014 14.5704ZM17.8014 16.2852H12.9743C12.9221 16.2851 12.872 16.2645 12.8347 16.228C12.7974 16.1915 12.7758 16.1418 12.7745 16.0896V15.6258C12.7752 15.5734 12.7966 15.5234 12.834 15.4867C12.8715 15.45 12.9219 15.4297 12.9743 15.4302H17.8014C17.9094 15.4302 17.9988 15.5178 18 15.6258V16.0878C17.9997 16.1403 17.9786 16.1906 17.9414 16.2277C17.9043 16.2648 17.8539 16.2856 17.8014 16.2858V16.2852ZM17.8014 18H12.9743C12.9221 17.9999 12.872 17.9793 12.8347 17.9428C12.7974 17.9063 12.7758 17.8566 12.7745 17.8044V17.3406C12.7752 17.2882 12.7966 17.2382 12.834 17.2015C12.8715 17.1648 12.9219 17.1445 12.9743 17.145H17.8014C17.9094 17.145 17.9988 17.2326 18 17.3406V17.8026C17.9995 17.855 17.9784 17.9051 17.9412 17.9421C17.9041 17.979 17.8538 17.9998 17.8014 18V18ZM11.9033 13.638V14.508C10.4963 14.508 9.35211 13.3818 9.35211 11.9976C9.35211 10.6134 10.4963 9.48723 11.9027 9.48723C13.3092 9.48723 14.4534 10.6134 14.4534 11.9976C14.4534 12.2916 14.403 12.582 14.301 12.8556H13.3199C13.4826 12.5994 13.569 12.3018 13.569 11.9976C13.569 11.0952 12.8201 10.3602 11.9009 10.3602C10.9841 10.3602 10.2353 11.0952 10.2353 11.9982C10.2371 12.9036 10.9841 13.6386 11.9033 13.6386V13.638ZM11.6921 17.127C11.748 17.1264 11.8019 17.1477 11.8421 17.1864C11.8814 17.2258 11.9038 17.279 11.9045 17.3346V17.7906C11.9039 17.846 11.8814 17.899 11.842 17.938C11.8026 17.9769 11.7494 17.9988 11.6939 17.9988H10.8623C10.6717 18.0008 10.4876 17.9292 10.3485 17.7988C10.2093 17.6685 10.1258 17.4896 10.1153 17.2992L9.99411 16.4184C9.63011 16.2666 9.28564 16.0716 8.9681 15.8376L8.1353 16.1724C7.9648 16.2591 7.76775 16.2778 7.58398 16.2248C7.4002 16.1718 7.24341 16.051 7.14528 15.8868L6.10067 14.112C6.00424 13.9484 5.97568 13.7535 6.02109 13.569C6.0665 13.3846 6.18228 13.2252 6.34368 13.125L7.05768 12.5814C7.00578 12.1948 7.00578 11.8029 7.05768 11.4162L6.34548 10.8732C6.18513 10.7732 6.06999 10.6147 6.02441 10.4313C5.97884 10.2478 6.0064 10.0539 6.10127 9.89043L7.14468 8.11324C7.24259 7.94931 7.39893 7.82854 7.58228 7.77522C7.76562 7.7219 7.96235 7.73999 8.13289 7.82584L8.9675 8.16064C9.28433 7.9256 9.62894 7.73053 9.99351 7.57984L10.1147 6.70084C10.1246 6.51059 10.2076 6.3315 10.3463 6.20093C10.485 6.07036 10.6688 5.9984 10.8593 6.00005H12.9449C13.1354 5.99793 13.3194 6.06956 13.4583 6.19995C13.5972 6.33034 13.6803 6.50939 13.6902 6.69964L13.812 7.57984C14.1764 7.73116 14.5211 7.92619 14.8386 8.16064L15.6732 7.82764C15.8437 7.74203 16.0402 7.72388 16.2235 7.77682C16.4068 7.82977 16.5634 7.9499 16.662 8.11324L17.7024 9.88923C17.7989 10.0527 17.8277 10.2475 17.7825 10.432C17.7373 10.6164 17.6218 10.7759 17.4606 10.8762L16.749 11.4186C16.7994 11.805 16.7994 12.198 16.749 12.5832L17.109 12.8574H15.807L15.8376 12.693C15.925 12.2348 15.925 11.7641 15.8376 11.3058L15.7902 11.0478L16.878 10.2198L15.9474 8.63224L14.6874 9.16443L14.4816 8.99043C14.1187 8.68981 13.7053 8.45617 13.2605 8.30044L13.0097 8.20984L12.8219 6.87184H10.9823L10.7969 8.21284L10.5467 8.30284C10.1014 8.45976 9.68736 8.69439 9.32391 8.99583L9.11991 9.16623L7.84789 8.65384L6.92748 10.218L8.01589 11.046L7.96849 11.3058C7.92589 11.5338 7.90309 11.7654 7.90189 11.9976C7.90309 12.2304 7.92589 12.4632 7.96729 12.6912L8.01289 12.951L6.92688 13.779L7.85989 15.3666L9.11811 14.8344L9.32571 15.0066C9.68855 15.3072 10.102 15.5409 10.5467 15.6966L10.7969 15.7872L10.9829 17.1288H11.6921V17.127Z" fill="white"/>
</svg>
