<svg width="76" height="76" viewBox="0 0 76 76" fill="none" xmlns="http://www.w3.org/2000/svg">
<path fill-rule="evenodd" clip-rule="evenodd" d="M33.0025 15.68H46.1519C50.4658 15.68 53.974 19.85 54 24.98V58.67C54 63.83 50.4658 68 46.1519 68H9.84808C5.50825 68 2 63.83 2 58.7V17.33C2 12.17 5.50825 8 9.84808 8H24.2189C26.6877 8 29.0265 9.38 30.5077 11.72L33.0025 15.68ZM35.7831 32H20.1909C18.7616 32 17.5922 33.35 17.5922 35C17.5922 36.65 18.7616 38 20.1909 38H35.7831C37.2124 38 38.3818 36.65 38.3818 35C38.3818 33.35 37.2124 32 35.7831 32ZM20.1909 50H35.7831C37.5242 50 38.3818 49.01 38.3818 47C38.3818 44.99 37.5242 44 35.7831 44H20.1909C18.4498 44 17.5922 44.99 17.5922 47C17.5922 49.01 18.4498 50 20.1909 50ZM16 35C16 36.6569 14.6569 38 13 38C11.3431 38 10 36.6569 10 35C10 33.3431 11.3431 32 13 32C14.6569 32 16 33.3431 16 35ZM16 47C16 48.6569 14.6569 50 13 50C11.3431 50 10 48.6569 10 47C10 45.3431 11.3431 44 13 44C14.6569 44 16 45.3431 16 47Z" fill="#BF9058"/>
<g filter="url(#filter0_b)">
<path d="M58.726 49.7915C58.126 51.4165 57.646 53.1413 57.28 54.6667H68.878C69.617 54.6651 70.349 54.8063 71.032 55.0822C71.715 55.3581 72.3355 55.7632 72.8579 56.2743C73.3804 56.7854 73.7943 57.3923 74.0761 58.0603C74.3579 58.7283 74.502 59.4441 74.5 60.1667V60.3603C74.5 63.2907 72.061 65.6667 69.094 65.6667H37.906C36.4695 65.662 35.0936 65.1004 34.0802 64.105C33.0667 63.1097 32.4984 61.7619 32.5 60.3573V60.1667C32.5 57.1277 35.002 54.6667 38.122 54.6667H49.588C49.1702 53.0074 48.6939 51.3628 48.16 49.7357C44.524 47.8907 42.046 44.2211 42.046 40C42.046 33.9251 47.176 29 53.5 29C59.827 29 64.954 33.9251 64.954 40C64.954 44.268 62.425 47.9669 58.726 49.7915ZM35.365 71.1667C35.363 70.9276 35.4093 70.6905 35.5011 70.4689C35.593 70.2473 35.7286 70.0456 35.9002 69.8753C36.0719 69.7051 36.2762 69.5695 36.5014 69.4765C36.7267 69.3835 36.9685 69.3349 37.213 69.3333H69.787C70.0315 69.3349 70.2733 69.3835 70.4986 69.4765C70.7238 69.5695 70.9281 69.7051 71.0998 69.8753C71.2714 70.0456 71.407 70.2473 71.4989 70.4689C71.5907 70.6905 71.637 70.9276 71.635 71.1667C71.637 71.4057 71.5907 71.6429 71.4989 71.8644C71.407 72.086 71.2714 72.2877 71.0998 72.458C70.9281 72.6283 70.7238 72.7638 70.4986 72.8568C70.2733 72.9498 70.0315 72.9985 69.787 73H37.213C36.9685 72.9985 36.7267 72.9498 36.5014 72.8568C36.2762 72.7638 36.0719 72.6283 35.9002 72.458C35.7286 72.2877 35.593 72.086 35.5011 71.8644C35.4093 71.6429 35.363 71.4057 35.365 71.1667Z" fill="#BF9058" fill-opacity="0.16"/>
</g>
<defs>
<filter id="filter0_b" x="17" y="15" width="73" height="72" filterUnits="userSpaceOnUse" color-interpolation-filters="sRGB">
<feFlood flood-opacity="0" result="BackgroundImageFix"/>
<feGaussianBlur in="BackgroundImage" stdDeviation="7"/>
<feComposite in2="SourceAlpha" operator="in" result="effect1_backgroundBlur"/>
<feBlend mode="normal" in="SourceGraphic" in2="effect1_backgroundBlur" result="shape"/>
</filter>
</defs>
</svg>
