<svg width="76" height="76" viewBox="0 0 76 76" fill="none" xmlns="http://www.w3.org/2000/svg">
<path d="M52.0976 13C54.1925 13 55.8666 13.5344 57.1201 14.6033C58.3734 15.6723 59 17.293 59 19.4653V48.1723C59 49.1034 58.8283 49.9826 58.4849 50.8103C58.1415 51.6378 57.6694 52.362 57.0684 52.9828C56.4674 53.6033 55.7634 54.0949 54.9566 54.4569C54.1495 54.819 53.2997 55 52.4069 55H7.49019C6.59738 55 5.75615 54.8276 4.96622 54.4827C4.17629 54.1377 3.48957 53.6809 2.90579 53.1119C2.32214 52.5429 1.8584 51.8792 1.51504 51.1205C1.17168 50.3619 1 49.5517 1 48.6895V19.362C1 17.4999 1.56668 15.9742 2.69997 14.7844C3.83299 13.5949 5.42996 13 7.49019 13H52.0976ZM15.4743 22.5688C14.8219 22.5688 14.2037 22.6897 13.6199 22.9309C13.036 23.1724 12.521 23.5086 12.0747 23.9397C11.6281 24.3706 11.2762 24.888 11.0187 25.4914C10.7611 26.0948 10.6323 26.7413 10.6323 27.4311C10.6323 28.1207 10.7611 28.7585 11.0187 29.3448C11.2762 29.9311 11.6281 30.4483 12.0747 30.8964C12.521 31.3448 13.036 31.6982 13.6199 31.957C14.2036 32.2154 14.8219 32.3446 15.4743 32.3446C16.1954 32.3446 16.8564 32.2155 17.4573 31.957C18.0584 31.6982 18.5735 31.3448 19.0026 30.8964C19.4319 30.4483 19.7753 29.9311 20.0329 29.3448C20.2903 28.7585 20.4193 28.1207 20.4193 27.4311C20.4193 26.0172 19.9556 24.8535 19.0284 23.9397C18.1012 23.0259 16.9166 22.5688 15.4743 22.5688ZM23.5612 40.4657C23.5612 39.8103 23.4325 39.1811 23.1749 38.5775C22.9175 37.9741 22.5742 37.4567 22.1448 37.0259C21.7154 36.5948 21.2004 36.25 20.5996 35.9912C19.9985 35.7327 19.3717 35.6035 18.7194 35.6035H12.2807C10.9413 35.6035 9.80808 36.0776 8.88087 37.0259C7.95393 37.974 7.49019 39.1207 7.49019 40.4657V40.6725V45.3277H23.5612V40.6725V40.4657ZM47.4619 45.5863C48.1486 45.5863 48.6554 45.4139 48.9815 45.0689C49.3077 44.7241 49.4708 44.3105 49.4708 43.8276C49.4708 43.3449 49.2819 42.9224 48.9042 42.5604C48.5264 42.1983 47.9942 42.0173 47.3074 42.0173H31.9575C31.2707 42.0173 30.7554 42.1983 30.4121 42.5604C30.0687 42.9224 29.897 43.3449 29.897 43.8276C29.897 44.3105 30.0687 44.7241 30.4121 45.0689C30.7555 45.4139 31.2536 45.5863 31.906 45.5863H47.4619ZM47.5134 38.9138C48.2002 38.9138 48.698 38.7413 49.0073 38.3965C49.3162 38.0517 49.4707 37.6379 49.4707 37.1552C49.4707 36.638 49.3248 36.2069 49.0328 35.862C48.7411 35.5172 48.2518 35.3448 47.565 35.3448H31.8029C31.116 35.3448 30.6181 35.5172 30.3091 35.862C30.0001 36.2069 29.8457 36.638 29.8457 37.1552C29.8457 37.6379 29.9916 38.0517 30.2833 38.3965C30.5751 38.7413 31.0647 38.9138 31.7514 38.9138H47.5134ZM47.565 32.3446C48.0801 32.3446 48.5264 32.1723 48.9041 31.8274C49.2818 31.4826 49.4707 31.069 49.4707 30.5861C49.4707 30.1034 49.2818 29.7154 48.9041 29.4224C48.5264 29.1292 48.0801 28.9827 47.565 28.9827H37.1083C36.5932 28.9827 36.1555 29.1292 35.7949 29.4224C35.4344 29.7154 35.2542 30.1033 35.2542 30.5861C35.2542 31.069 35.4344 31.4826 35.7949 31.8274C36.1555 32.1722 36.5933 32.3446 37.1083 32.3446H47.565Z" fill="#368CFE"/>
<g filter="url(#filter0_b)">
<path d="M57.726 46.7915C57.126 48.4165 56.646 50.1413 56.28 51.6667H67.878C68.617 51.6651 69.349 51.8063 70.032 52.0822C70.715 52.3581 71.3355 52.7632 71.8579 53.2743C72.3804 53.7854 72.7943 54.3923 73.0761 55.0603C73.3579 55.7283 73.502 56.4441 73.5 57.1667V57.3603C73.5 60.2907 71.061 62.6667 68.094 62.6667H36.906C35.4695 62.662 34.0936 62.1004 33.0802 61.105C32.0667 60.1097 31.4984 58.7619 31.5 57.3573V57.1667C31.5 54.1277 34.002 51.6667 37.122 51.6667H48.588C48.1702 50.0074 47.6939 48.3628 47.16 46.7357C43.524 44.8907 41.046 41.2211 41.046 37C41.046 30.9251 46.176 26 52.5 26C58.827 26 63.954 30.9251 63.954 37C63.954 41.268 61.425 44.9669 57.726 46.7915ZM34.365 68.1667C34.363 67.9276 34.4093 67.6905 34.5011 67.4689C34.593 67.2473 34.7286 67.0456 34.9002 66.8753C35.0719 66.7051 35.2762 66.5695 35.5014 66.4765C35.7267 66.3835 35.9685 66.3349 36.213 66.3333H68.787C69.0315 66.3349 69.2733 66.3835 69.4986 66.4765C69.7238 66.5695 69.9281 66.7051 70.0998 66.8753C70.2714 67.0456 70.407 67.2473 70.4989 67.4689C70.5907 67.6905 70.637 67.9276 70.635 68.1667C70.637 68.4057 70.5907 68.6429 70.4989 68.8644C70.407 69.086 70.2714 69.2877 70.0998 69.458C69.9281 69.6283 69.7238 69.7638 69.4986 69.8568C69.2733 69.9498 69.0315 69.9985 68.787 70H36.213C35.9685 69.9985 35.7267 69.9498 35.5014 69.8568C35.2762 69.7638 35.0719 69.6283 34.9002 69.458C34.7286 69.2877 34.593 69.086 34.5011 68.8644C34.4093 68.6429 34.363 68.4057 34.365 68.1667Z" fill="#368CFE" fill-opacity="0.16"/>
</g>
<defs>
<filter id="filter0_b" x="16" y="12" width="73" height="72" filterUnits="userSpaceOnUse" color-interpolation-filters="sRGB">
<feFlood flood-opacity="0" result="BackgroundImageFix"/>
<feGaussianBlur in="BackgroundImage" stdDeviation="7"/>
<feComposite in2="SourceAlpha" operator="in" result="effect1_backgroundBlur"/>
<feBlend mode="normal" in="SourceGraphic" in2="effect1_backgroundBlur" result="shape"/>
</filter>
</defs>
</svg>
