<svg width="76" height="76" viewBox="0 0 76 76" fill="none" xmlns="http://www.w3.org/2000/svg">
<g clip-path="url(#clip0)">
<path d="M44 65H14C12.9391 65 11.9217 64.5624 11.1716 63.7834C10.4214 63.0044 10 61.9478 10 60.8462V23.4615C10 22.3599 10.4214 21.3033 11.1716 20.5243C11.9217 19.7453 12.9391 19.3077 14 19.3077H44C45.0609 19.3077 46.0783 19.7453 46.8284 20.5243C47.5786 21.3033 48 22.3599 48 23.4615V60.8462C48 61.9478 47.5786 63.0044 46.8284 63.7834C46.0783 64.5624 45.0609 65 44 65ZM37.216 41.9628C38.197 41.9628 39 41.1247 39 40.0904C39 39.0561 38.197 38.217 37.216 38.217H33.656L36.785 31.3694C36.99 30.9222 37.018 30.4093 36.863 29.9408C36.708 29.4724 36.3824 29.0856 35.956 28.8636C35.076 28.4171 34.011 28.8096 33.571 29.7463L29.706 38.217H27.829L23.964 29.7463C23.8647 29.5256 23.7241 29.3276 23.5504 29.1639C23.3767 29.0002 23.1734 28.8739 22.9523 28.7926C22.7312 28.7112 22.4967 28.6763 22.2625 28.6899C22.0282 28.7036 21.799 28.7654 21.588 28.8719C21.1599 29.0921 20.8328 29.4787 20.6776 29.9479C20.5224 30.4171 20.5516 30.9308 20.759 31.3777L23.88 38.2264H20.776C19.795 38.2264 19 39.0738 19 40.0987C19 41.133 19.795 41.9711 20.776 41.9711H27.22V45.2973H20.776C19.795 45.2973 19 46.1353 19 47.1707C19 48.205 19.795 49.043 20.776 49.043H27.22V53.7867C27.22 54.821 28.015 55.659 28.996 55.659C29.977 55.659 30.78 54.821 30.78 53.7867V49.043H37.216C38.197 49.043 39 48.205 39 47.1707C39.0017 46.9259 38.9569 46.6832 38.8681 46.4564C38.7793 46.2297 38.6483 46.0234 38.4825 45.8494C38.3168 45.6753 38.1196 45.537 37.9023 45.4422C37.6849 45.3475 37.4517 45.2982 37.216 45.2973H30.78V41.9628H37.216ZM10 15.1538C8.93913 15.1538 7.92172 15.5915 7.17157 16.3705C6.42143 17.1495 6 18.206 6 19.3077V56.6923C4.93913 56.6923 3.92172 56.2547 3.17157 55.4757C2.42143 54.6967 2 53.6401 2 52.5385V15.1538C2 14.0522 2.42143 12.9956 3.17157 12.2166C3.92172 11.4376 4.93913 11 6 11H36C37.0609 11 38.0783 11.4376 38.8284 12.2166C39.5786 12.9956 40 14.0522 40 15.1538V15.7302C39.3946 15.3566 38.7042 15.1576 38 15.1538H10Z" fill="#E3612A"/>
<g filter="url(#filter0_b)">
<path d="M60.726 49.7915C60.126 51.4165 59.646 53.1413 59.28 54.6667H70.878C71.617 54.6651 72.349 54.8063 73.032 55.0822C73.715 55.3581 74.3355 55.7632 74.8579 56.2743C75.3804 56.7854 75.7943 57.3923 76.0761 58.0603C76.3579 58.7283 76.502 59.4441 76.5 60.1667V60.3603C76.5 63.2907 74.061 65.6667 71.094 65.6667H39.906C38.4695 65.662 37.0936 65.1004 36.0802 64.105C35.0667 63.1097 34.4984 61.7619 34.5 60.3573V60.1667C34.5 57.1277 37.002 54.6667 40.122 54.6667H51.588C51.1702 53.0074 50.6939 51.3628 50.16 49.7357C46.524 47.8907 44.046 44.2211 44.046 40C44.046 33.9251 49.176 29 55.5 29C61.827 29 66.954 33.9251 66.954 40C66.954 44.268 64.425 47.9669 60.726 49.7915ZM37.365 71.1667C37.363 70.9276 37.4093 70.6905 37.5011 70.4689C37.593 70.2473 37.7286 70.0456 37.9002 69.8753C38.0719 69.7051 38.2762 69.5695 38.5014 69.4765C38.7267 69.3835 38.9685 69.3349 39.213 69.3333H71.787C72.0315 69.3349 72.2733 69.3835 72.4986 69.4765C72.7238 69.5695 72.9281 69.7051 73.0998 69.8753C73.2714 70.0456 73.407 70.2473 73.4989 70.4689C73.5907 70.6905 73.637 70.9276 73.635 71.1667C73.637 71.4057 73.5907 71.6429 73.4989 71.8644C73.407 72.086 73.2714 72.2877 73.0998 72.458C72.9281 72.6283 72.7238 72.7638 72.4986 72.8568C72.2733 72.9498 72.0315 72.9985 71.787 73H39.213C38.9685 72.9985 38.7267 72.9498 38.5014 72.8568C38.2762 72.7638 38.0719 72.6283 37.9002 72.458C37.7286 72.2877 37.593 72.086 37.5011 71.8644C37.4093 71.6429 37.363 71.4057 37.365 71.1667Z" fill="#E3612A" fill-opacity="0.16"/>
</g>
</g>
<defs>
<filter id="filter0_b" x="19" y="15" width="73" height="72" filterUnits="userSpaceOnUse" color-interpolation-filters="sRGB">
<feFlood flood-opacity="0" result="BackgroundImageFix"/>
<feGaussianBlur in="BackgroundImage" stdDeviation="7"/>
<feComposite in2="SourceAlpha" operator="in" result="effect1_backgroundBlur"/>
<feBlend mode="normal" in="SourceGraphic" in2="effect1_backgroundBlur" result="shape"/>
</filter>
<clipPath id="clip0">
<rect width="76" height="76" fill="white"/>
</clipPath>
</defs>
</svg>
