<svg width="24" height="24" viewBox="0 0 24 24" fill="none" xmlns="http://www.w3.org/2000/svg">
<path d="M12 22.7992C6.03541 22.7992 1.20001 17.9638 1.20001 11.9992C1.20001 6.03462 6.03541 1.19922 12 1.19922C17.9646 1.19922 22.8 6.03462 22.8 11.9992C22.8 17.9638 17.9646 22.7992 12 22.7992Z" fill="#FE9636"/>
<path fill-rule="evenodd" clip-rule="evenodd" d="M9.32044 18.469C10.1699 18.8209 11.0805 19.0013 12 19C12.9194 19.0013 13.8301 18.8208 14.6795 18.469C15.529 18.1171 16.3005 17.6008 16.9498 16.9498C17.6008 16.3005 18.1171 15.529 18.469 14.6795C18.8208 13.8301 19.0013 12.9194 19 12C19.0013 11.0806 18.8208 10.1699 18.469 9.32047C18.1171 8.47101 17.6008 7.69947 16.9498 7.05023C16.3005 6.39918 15.529 5.8829 14.6795 5.53105C13.8301 5.1792 12.9194 4.99872 12 5.00001C11.0806 4.99872 10.1699 5.1792 9.32047 5.53105C8.47101 5.8829 7.69948 6.39918 7.05023 7.05023C6.39915 7.69945 5.88284 8.47098 5.53099 9.32044C5.17914 10.1699 4.99868 11.0805 5.00001 12C4.99873 12.9194 5.1792 13.8301 5.53105 14.6795C5.8829 15.529 6.39919 16.3005 7.05023 16.9498C7.69945 17.6008 8.47098 18.1172 9.32044 18.469ZM5.98778 12C5.98778 8.68511 8.68511 5.98778 12 5.98778C15.3149 5.98778 18.0122 8.68511 18.0122 12C18.0122 15.3149 15.3149 18.0122 12 18.0122C8.68511 18.0122 5.98778 15.3149 5.98778 12ZM11.0876 10.2092L10.5883 10.6867H14.6125C14.8879 10.6867 15.0901 10.8765 15.0901 11.1394C15.0901 11.4015 14.8871 11.6379 14.6125 11.6379H9.36098L9.35009 11.6364H9.33686L9.32286 11.6348L9.31275 11.6333L9.2972 11.6309L9.28942 11.6294L9.27386 11.6263L9.26609 11.6247L9.25053 11.6208C9.24939 11.6205 9.24835 11.6201 9.24734 11.6198C9.2456 11.6191 9.24395 11.6185 9.24198 11.6185L9.22798 11.6138L9.21864 11.6107L9.2062 11.6068L9.19531 11.6022L9.1852 11.5983L9.17198 11.5928L9.1642 11.5889L9.15098 11.5819L9.1432 11.578L9.1292 11.5703L9.12298 11.5664L9.10898 11.5578L9.10275 11.5539L9.08875 11.5446L9.08253 11.5399L9.07009 11.5306L9.06231 11.5236L9.05142 11.515L9.03898 11.5034L9.03353 11.4995L9.02886 11.494L9.0172 11.4824L9.00786 11.4723L9.00164 11.4645L8.98609 11.4466L8.97675 11.4334L8.97209 11.4272L8.96353 11.4139L8.95886 11.4077L8.95109 11.3945L8.9472 11.3875L8.9402 11.3743L8.93631 11.3665C8.93275 11.3593 8.92938 11.3521 8.9262 11.3447L8.92153 11.3346L8.91686 11.3229L8.91375 11.3136L8.90909 11.3004L8.90675 11.2918L8.90286 11.2778L8.90131 11.27L8.89742 11.2553L8.89586 11.2475C8.89559 11.2456 8.89522 11.2437 8.89485 11.2419C8.89418 11.2386 8.89353 11.2355 8.89353 11.2319L8.89198 11.2234L8.89042 11.2094L8.88886 11.1969V11.186C8.88807 11.1705 8.88807 11.1549 8.88886 11.1394L8.89042 11.1285L8.8912 11.116L8.89275 11.102L8.89431 11.0935C8.89458 11.0916 8.89496 11.0897 8.89532 11.0879C8.89599 11.0846 8.89664 11.0815 8.89664 11.0779L8.8982 11.0702L8.90209 11.0554L8.90364 11.0476L8.90753 11.0328L8.90986 11.025L8.91453 11.0118L8.91764 11.0025L8.92231 10.9908L8.92698 10.9799L8.93086 10.9706L8.93709 10.9582L8.94098 10.9504L8.94798 10.9379L8.95264 10.9309L8.96042 10.9169L8.96431 10.9115L8.97286 10.8975L8.97753 10.892L8.98686 10.8788L8.99231 10.8726L9.00164 10.8609L9.00864 10.8532L9.01798 10.843C9.02204 10.8386 9.02619 10.8342 9.03042 10.8298L9.03509 10.8259L10.3838 9.53638C10.4791 9.44686 10.6049 9.39703 10.7357 9.39703C10.8665 9.39703 10.9923 9.44686 11.0876 9.53638C11.1336 9.57951 11.1703 9.63162 11.1953 9.68948C11.2204 9.74733 11.2333 9.80972 11.2333 9.87277C11.2333 9.93582 11.2204 9.9982 11.1953 10.0561C11.1703 10.1139 11.1336 10.166 11.0876 10.2092ZM14.9983 13.5606L14.9905 13.5684H14.9913L14.982 13.5785C14.9776 13.583 14.9732 13.5874 14.9687 13.5917L14.9649 13.5948L13.6162 14.8851C13.4217 15.071 13.1067 15.071 12.9123 14.8851C12.8663 14.842 12.8297 14.7899 12.8046 14.732C12.7796 14.6742 12.7666 14.6118 12.7666 14.5488C12.7666 14.4857 12.7796 14.4233 12.8046 14.3655C12.8297 14.3076 12.8663 14.2555 12.9123 14.2124L13.4116 13.7348H9.38664C9.11209 13.7348 8.88886 13.5217 8.88886 13.258C8.89213 13.1292 8.94636 13.0069 9.03967 12.9179C9.13299 12.829 9.25776 12.7807 9.38664 12.7836H14.6382L14.6499 12.7844L14.6623 12.7852L14.6763 12.7867L14.6864 12.7883L14.702 12.7906L14.7097 12.7922L14.7253 12.7953L14.7331 12.7968L14.7486 12.8007C14.7498 12.801 14.7508 12.8014 14.7518 12.8018C14.7536 12.8024 14.7552 12.803 14.7572 12.803L14.7712 12.8077L14.7805 12.8108L14.793 12.8147L14.8039 12.8194L14.814 12.8233L14.8272 12.8287L14.835 12.8326L14.8482 12.8396L14.856 12.8427L14.87 12.8505L14.8762 12.8552L14.8902 12.8629L14.8964 12.8676L14.9104 12.8769L14.9166 12.8824L14.9291 12.8902L14.9376 12.8979L14.9477 12.9057C14.9549 12.9121 14.9619 12.9185 14.9687 12.9252C14.9735 12.9297 14.9782 12.9344 14.9827 12.9392L14.9905 12.9493L14.9983 12.957L15.0076 12.9687L15.0131 12.9749L15.0224 12.9874L15.0271 12.9936L15.0356 13.0068L15.0403 13.0138L15.0481 13.0263L15.052 13.034L15.059 13.0465L15.0629 13.055L15.0683 13.0659L15.073 13.0768L15.0776 13.0869L15.0823 13.0994L15.0854 13.1072L15.0901 13.1212L15.0924 13.1289L15.0963 13.1429L15.0979 13.1507L15.1017 13.1663L15.1033 13.1733L15.1056 13.1888L15.1072 13.1966L15.1087 13.2122L15.1095 13.223L15.1111 13.2355V13.2588L15.1103 13.2619C15.1105 13.2687 15.1105 13.2754 15.1103 13.2822L15.1095 13.2946L15.1087 13.3047L15.1072 13.3203L15.1056 13.328L15.1033 13.3428L15.1017 13.3506L15.0979 13.3661L15.0963 13.3731C15.0951 13.3784 15.0938 13.3835 15.0924 13.3887C15.0922 13.3894 15.0919 13.3901 15.0916 13.3908C15.0909 13.3925 15.0901 13.3943 15.0901 13.3965L15.0854 13.4097L15.0823 13.419L15.0776 13.4307L15.073 13.4408L15.0691 13.4509L15.0629 13.4626L15.059 13.4712L15.052 13.4828L15.0481 13.4906L15.0403 13.5038L15.0356 13.51L15.0271 13.5233L15.0232 13.5295C15.0182 13.5361 15.013 13.5426 15.0076 13.5489L14.9983 13.5606Z" fill="white"/>
</svg>
