<svg width="24" height="24" viewBox="0 0 24 24" fill="none" xmlns="http://www.w3.org/2000/svg">
<path d="M12 22.8C6.03535 22.8 1.19995 17.9646 1.19995 12C1.19995 6.03541 6.03535 1.20001 12 1.20001C17.9646 1.20001 22.7999 6.03541 22.7999 12C22.7999 17.9646 17.9646 22.8 12 22.8Z" fill="#368CFE"/>
<path d="M16.5722 18H7.42767C7.19148 18 7 17.7935 7 17.5388C7 17.2841 7.19148 17.0777 7.42767 17.0777H16.5723C16.8085 17.0777 17 17.2841 17 17.5388C17 17.7935 16.8085 18 16.5722 18ZM16.5713 16.1651H7.44745C7.21126 16.1651 7.01978 15.9586 7.01978 15.7039V14.0731C7.01978 13.2667 7.62789 12.6106 8.37532 12.6106H10.1038C10.0806 12.1249 9.92678 11.3464 9.78847 11.1741C9.3307 10.539 9.08118 9.80324 9.05208 9.02664C9.04965 8.17694 9.37284 7.37329 9.93896 6.8047C10.4961 6.24493 11.2486 5.95423 12.0102 6.00616C12.7657 5.95345 13.5144 6.24107 14.0708 6.79512C14.6358 7.35768 14.9624 8.15422 14.967 8.98043C14.9399 9.78052 14.6902 10.5199 14.2449 11.1382C14.096 11.326 13.9411 12.102 13.9154 12.5877H15.6436C16.391 12.5877 16.9991 13.2438 16.9991 14.0501V15.704C16.999 15.9587 16.8075 16.1651 16.5713 16.1651ZM7.87512 15.2427H16.1435V14.0499C16.1435 13.7523 15.9191 13.5099 15.6433 13.5099H13.623C13.4837 13.5099 13.353 13.4367 13.2729 13.3136C13.1541 13.1311 13.0804 12.916 13.0594 12.6917C13.0575 12.6721 13.0569 12.6523 13.0574 12.6322C13.0651 12.3412 13.1831 11.0565 13.5825 10.5548C13.9041 10.1074 14.0916 9.55179 14.1118 8.96575C14.1083 8.41386 13.8819 7.86228 13.4905 7.47251C13.1001 7.08382 12.5736 6.88584 12.0422 6.92803C12.021 6.92989 11.9999 6.92973 11.9787 6.92819C11.4454 6.88383 10.9131 7.08645 10.522 7.47931C10.1297 7.87356 9.90571 8.43024 9.90714 9.0067C9.92864 9.57297 10.1162 10.1261 10.4495 10.5894C10.8409 11.0756 10.9548 12.3655 10.9613 12.6577C10.9617 12.6746 10.9611 12.6916 10.9598 12.7083C10.9419 12.9319 10.8678 13.1494 10.7454 13.337C10.7059 13.3975 10.6535 13.4468 10.5926 13.4809C10.5318 13.515 10.4642 13.5328 10.3956 13.5328H8.37546C8.09971 13.5328 7.87527 13.7751 7.87527 14.0729V15.2427H7.87512Z" fill="white"/>
</svg>
