<svg width="24" height="24" viewBox="0 0 24 24" fill="none" xmlns="http://www.w3.org/2000/svg">
<path d="M12 22.8002C6.03541 22.8002 1.20001 17.9648 1.20001 12.0002C1.20001 6.03559 6.03541 1.2002 12 1.2002C17.9646 1.2002 22.8 6.03559 22.8 12.0002C22.8 17.9648 17.9646 22.8002 12 22.8002Z" fill="#9B51E0"/>
<path d="M17.6778 7.90406C17.8593 7.98184 17.963 8.13739 17.963 8.31887V12.1041C17.963 15.3707 14.1 18.8189 12 18.8189C9.90001 18.8189 6.03705 15.3967 6.03705 12.13V8.3448C6.03705 8.16332 6.14075 7.98184 6.32223 7.92998C8.03334 7.22998 9.56297 6.37443 10.8074 5.41517C11.5074 4.87072 12.4667 4.87072 13.1667 5.41517C14.437 6.3485 15.9667 7.20406 17.6778 7.90406V7.90406ZM16.6408 8.73369C15.2408 8.16332 13.9963 7.46332 12.9593 6.68554C12.3889 6.2448 11.6111 6.2448 11.0408 6.68554C10.0037 7.46332 8.75927 8.16332 7.35927 8.73369C7.22964 8.78554 7.12594 8.94109 7.12594 9.07072V12.1559C7.12594 14.8522 10.2889 17.6781 12 17.6781C13.7111 17.6781 16.8741 14.8522 16.8741 12.1818V9.07072C16.8741 8.94109 16.7963 8.78554 16.6408 8.73369V8.73369Z" fill="white"/>
<path d="M14.7741 10.2894H12.9333L13.5815 10.419C13.4518 10.6264 13.3222 10.8597 13.1926 11.0412H14.4889V14.1783C14.4889 14.5153 14.4111 14.6449 14.1778 14.7486C13.9444 14.8264 13.6074 14.8523 13.1148 14.8523C13.0889 14.6968 12.9852 14.4634 12.9074 14.3079H13.6592C13.7629 14.3079 13.7889 14.282 13.7889 14.1783V12.519L13.4259 12.9079C13.3481 12.856 13.2704 12.7783 13.1666 12.7005V14.1005H11.3778V14.3597H10.7555V12.7783L10.5222 12.9338C10.4963 12.8301 10.3407 12.4671 10.237 12.3375C10.6 12.156 11.0407 11.8968 11.3259 11.6375H10.2111V14.8523H9.51109V11.0412H10.7815C10.7037 10.8597 10.6 10.6005 10.4963 10.419L10.9111 10.2894H9.19998V9.66714H11.6889C11.637 9.51159 11.5592 9.35603 11.5074 9.2264L12.2592 9.04492C12.3629 9.2264 12.4666 9.48566 12.5444 9.66714H14.7481V10.2894H14.7741ZM13.0629 12.5968C12.8037 12.3894 12.4926 12.156 12.2592 11.9746L12.5963 11.6375H11.3778L11.8704 11.8708C11.6629 12.1042 11.3518 12.3634 11.0407 12.5968H13.0629ZM12.4666 11.0412C12.5963 10.8079 12.7259 10.5227 12.8037 10.2894H11.2741C11.3778 10.4968 11.5074 10.7301 11.5852 10.8857L11.1444 11.0412H12.4666ZM12.5963 13.0894H11.3778V13.582H12.5963V13.0894ZM13.8148 11.6375H12.8037C13.1407 11.8708 13.5555 12.156 13.8148 12.3894V11.6375V11.6375Z" fill="white"/>
</svg>
