<svg width="24" height="24" viewBox="0 0 24 24" fill="none" xmlns="http://www.w3.org/2000/svg">
<path d="M12 22.8C6.03535 22.8 1.19995 17.9646 1.19995 12C1.19995 6.03541 6.03535 1.20001 12 1.20001C17.9646 1.20001 22.7999 6.03541 22.7999 12C22.7999 17.9646 17.9646 22.8 12 22.8Z" fill="#FE9636"/>
<path d="M7.49027 14.2548V7.49027H14.2548C14.5688 7.49027 14.82 7.23909 14.82 6.92513C14.82 6.61116 14.5688 6.35999 14.2548 6.35999H6.92513C6.61116 6.35999 6.35999 6.61116 6.35999 6.92513V14.2548C6.35999 14.5688 6.61116 14.82 6.92513 14.82C7.23909 14.82 7.49027 14.5688 7.49027 14.2548V14.2548Z" fill="white"/>
<path d="M16.6963 8.21997H9.16369C8.64321 8.21997 8.21997 8.64321 8.21997 9.16369V16.6963C8.21997 17.2167 8.64321 17.64 9.16369 17.64H16.6963C17.2167 17.64 17.64 17.2167 17.64 16.6963V9.15797C17.64 8.63749 17.2167 8.21997 16.6963 8.21997V8.21997ZM16.6963 16.6905H9.16369V9.15797H16.6963V16.6905V16.6905Z" fill="white"/>
<path d="M10.6041 13.4314H12.466V15.3114C12.466 15.5686 12.6753 15.78 12.93 15.78C13.1847 15.78 13.3941 15.5686 13.3941 15.3114V13.4314H15.256C15.5106 13.4314 15.72 13.22 15.72 12.9629C15.72 12.7057 15.5106 12.4943 15.256 12.4943H13.3941V10.6086C13.3941 10.3514 13.1847 10.14 12.93 10.14C12.6753 10.14 12.466 10.3514 12.466 10.6086V12.4886H10.6041C10.3494 12.4886 10.14 12.7 10.14 12.9572C10.14 13.22 10.3494 13.4314 10.6041 13.4314V13.4314Z" fill="white"/>
</svg>
