<svg width="24" height="24" viewBox="0 0 24 24" fill="none" xmlns="http://www.w3.org/2000/svg">
<path d="M12 22.8002C6.03541 22.8002 1.20001 17.9648 1.20001 12.0002C1.20001 6.03559 6.03541 1.2002 12 1.2002C17.9646 1.2002 22.8 6.03559 22.8 12.0002C22.8 17.9648 17.9646 22.8002 12 22.8002Z" fill="#2D9CDB"/>
<path d="M18.9972 11.9986C19.0055 12.0871 18.9953 12.1763 18.9671 12.2606C18.9389 12.3449 18.8935 12.4224 18.8337 12.4881C18.7738 12.5538 18.7009 12.6063 18.6196 12.6422C18.5384 12.6782 18.4505 12.6967 18.3616 12.6967C18.2727 12.6967 18.1848 12.6782 18.1035 12.6422C18.0223 12.6063 17.9494 12.5538 17.8895 12.4881C17.8297 12.4224 17.7842 12.3449 17.7561 12.2606C17.7279 12.1763 17.7177 12.0871 17.726 11.9986C17.726 8.83506 15.1617 6.27073 11.9986 6.27073C8.83506 6.27073 6.27073 8.83506 6.27073 11.9986C6.27073 15.1617 8.83506 17.726 11.9986 17.726C12.0871 17.7177 12.1763 17.7279 12.2606 17.7561C12.3449 17.7842 12.4224 17.8297 12.4881 17.8895C12.5538 17.9494 12.6063 18.0223 12.6422 18.1035C12.6782 18.1848 12.6967 18.2727 12.6967 18.3616C12.6967 18.4505 12.6782 18.5384 12.6422 18.6196C12.6063 18.7009 12.5538 18.7738 12.4881 18.8337C12.4224 18.8935 12.3449 18.9389 12.2606 18.9671C12.1763 18.9953 12.0871 19.0055 11.9986 18.9972C8.1332 18.9972 5 15.8635 5 11.9986C5 8.1332 8.1332 5 11.9986 5C15.8635 5 18.9972 8.1332 18.9972 11.9986ZM11.9986 11.9986V9.45666C11.9986 9.37282 12.0151 9.2898 12.0472 9.21233C12.0792 9.13487 12.1263 9.06448 12.1855 9.00519C12.2448 8.9459 12.3152 8.89886 12.3927 8.86677C12.4701 8.83469 12.5532 8.81817 12.637 8.81817C12.7208 8.81817 12.8039 8.83469 12.8813 8.86677C12.9588 8.89886 13.0292 8.9459 13.0884 9.00519C13.1477 9.06448 13.1947 9.13487 13.2268 9.21233C13.2589 9.2898 13.2754 9.37282 13.2754 9.45666V12.637C13.2739 12.8059 13.2062 12.9674 13.0868 13.0868C12.9674 13.2062 12.8059 13.2739 12.637 13.2754H9.45666C9.28737 13.2754 9.12501 13.2081 9.00531 13.0884C8.8856 12.9687 8.81836 12.8063 8.81836 12.637C8.81836 12.4677 8.8856 12.3053 9.00531 12.1856C9.12501 12.0659 9.28737 11.9986 9.45666 11.9986H11.9986V11.9986ZM17.0876 15.8169H18.3644C18.5222 15.8323 18.6686 15.9059 18.7751 16.0233C18.8816 16.1408 18.9406 16.2937 18.9406 16.4522C18.9406 16.6108 18.8816 16.7637 18.7751 16.8811C18.6686 16.9985 18.5222 17.0722 18.3644 17.0876H17.0876V18.3644C17.0722 18.5222 16.9985 18.6686 16.8811 18.7751C16.7637 18.8816 16.6108 18.9406 16.4522 18.9406C16.2937 18.9406 16.1408 18.8816 16.0233 18.7751C15.9059 18.6686 15.8323 18.5222 15.8169 18.3644V17.0876H14.5461C14.4575 17.0963 14.368 17.0863 14.2834 17.0583C14.1988 17.0303 14.1211 16.985 14.0551 16.9251C13.9891 16.8653 13.9364 16.7923 13.9003 16.7108C13.8642 16.6294 13.8456 16.5413 13.8456 16.4522C13.8456 16.3631 13.8642 16.2751 13.9003 16.1936C13.9364 16.1122 13.9891 16.0392 14.0551 15.9793C14.1211 15.9195 14.1988 15.8741 14.2834 15.8461C14.368 15.8182 14.4575 15.8082 14.5461 15.8169H15.8169V14.5461C15.8082 14.4575 15.8182 14.368 15.8461 14.2834C15.8741 14.1988 15.9195 14.1211 15.9793 14.0551C16.0392 13.9891 16.1122 13.9364 16.1936 13.9003C16.2751 13.8642 16.3631 13.8456 16.4522 13.8456C16.5413 13.8456 16.6294 13.8642 16.7108 13.9003C16.7923 13.9364 16.8653 13.9891 16.9251 14.0551C16.985 14.1211 17.0303 14.1988 17.0583 14.2834C17.0863 14.368 17.0963 14.4575 17.0876 14.5461V15.8169Z" fill="white"/>
</svg>
