<svg width="100" height="100" viewBox="0 0 100 100" fill="none" xmlns="http://www.w3.org/2000/svg">
<path d="M49.9999 29.832C38.8835 29.832 29.8333 38.8823 29.8333 49.9987C29.8333 61.1151 38.8835 70.1654 49.9999 70.1654C61.1163 70.1654 70.1666 61.1151 70.1666 49.9987C70.1666 38.8823 61.1163 29.832 49.9999 29.832ZM49.9999 53.3656C55.7823 53.3656 60.4683 58.0516 60.4316 63.9073C57.4918 66.1366 53.8023 67.3842 49.9999 67.3842C46.1976 67.3842 42.508 66.1375 39.5316 63.8339C39.5316 58.0516 44.2176 53.3656 49.9999 53.3656ZM49.8019 32.6132C59.3765 32.6132 67.3854 40.4974 67.3854 49.9987C67.3854 54.109 65.9765 57.8949 63.3778 61.0152L63.1137 61.3241L62.9543 61.2819C62.5335 59.1753 61.6082 57.202 60.2577 55.5312C58.9073 53.8605 57.1718 52.5421 55.2002 51.689L54.9068 51.5662L54.8784 51.414C56.3873 50.006 57.2214 48.136 57.2214 46.046C57.2214 42.0448 53.9022 38.7255 49.9009 38.7255C45.8997 38.7255 42.5813 42.0448 42.5813 46.046C42.5813 48.0407 43.3413 49.8355 44.7227 51.2188L44.9243 51.414L44.8959 51.5662C42.9046 52.3717 41.1382 53.648 39.7481 55.2857C38.3581 56.9233 37.3858 58.8736 36.9145 60.9694L36.8476 61.2819L36.6881 61.3232C33.9473 58.0553 32.4164 54.1549 32.4164 49.9987C32.4164 40.4617 40.2649 32.6132 49.8019 32.6132V32.6132ZM49.9999 41.5076C52.5208 41.5076 54.5383 43.5243 54.5383 46.0451C54.5383 48.5669 52.5217 50.5844 49.9999 50.5844C47.4791 50.5844 45.4615 48.5678 45.4615 46.046C45.4615 43.5252 47.4782 41.5076 49.9999 41.5076V41.5076Z" fill="#C0C4CC"/>
<rect x="0.5" y="0.5" width="99" height="99" rx="3.5" stroke="#E4E7ED" stroke-dasharray="2.1 2.1"/>
</svg>
