<svg width="24" height="24" viewBox="0 0 24 24" fill="none" xmlns="http://www.w3.org/2000/svg">
<path d="M12 22.7992C6.03541 22.7992 1.20001 17.9638 1.20001 11.9992C1.20001 6.03462 6.03541 1.19922 12 1.19922C17.9646 1.19922 22.8 6.03462 22.8 11.9992C22.8 17.9638 17.9646 22.7992 12 22.7992Z" fill="#FE3636"/>
<path fill-rule="evenodd" clip-rule="evenodd" d="M7.30049 17.1898H12.0736V17.1973C12.1412 17.2058 12.2098 17.1998 12.275 17.1798C12.3401 17.1597 12.4002 17.126 12.4513 17.0809C12.5024 17.0359 12.5433 16.9804 12.5713 16.9183C12.5993 16.8562 12.6138 16.7889 12.6138 16.7207C12.6138 16.6526 12.5993 16.5853 12.5713 16.5232C12.5433 16.4611 12.5024 16.4056 12.4513 16.3606C12.4002 16.3155 12.3401 16.2818 12.275 16.2617C12.2098 16.2417 12.1412 16.2357 12.0736 16.2442H7.30049C7.19277 16.2257 7.09647 16.166 7.03201 16.0778C6.96756 15.9895 6.94004 15.8796 6.95527 15.7714V9.97006H17.1844V11.411C17.1844 11.5394 17.2354 11.6625 17.3262 11.7533C17.417 11.8441 17.5401 11.8951 17.6685 11.8951C17.7969 11.8951 17.92 11.8441 18.0108 11.7533C18.1016 11.6625 18.1526 11.5394 18.1526 11.411V7.43344C18.1617 7.25401 18.1353 7.07456 18.0749 6.90535C18.0145 6.73615 17.9214 6.58051 17.8008 6.44736C17.6802 6.3142 17.5345 6.20615 17.3721 6.12939C17.2096 6.05262 17.0337 6.00865 16.8542 6H7.30049C7.12072 6.00767 6.94426 6.05098 6.78137 6.12741C6.61847 6.20384 6.47239 6.31188 6.35159 6.44524C6.2308 6.5786 6.13771 6.73463 6.07772 6.90428C6.01773 7.07392 5.99204 7.25378 6.00214 7.43344V15.7714C5.99204 15.9503 6.01783 16.1294 6.07799 16.2982C6.13815 16.4669 6.23147 16.622 6.35246 16.7542C6.47344 16.8863 6.61964 16.993 6.78245 17.0678C6.94527 17.1426 7.1214 17.1841 7.30049 17.1898ZM17.1844 9.00943H6.95527V7.43344C6.94615 7.32882 6.97653 7.22458 7.04042 7.14124C7.10431 7.0579 7.19709 7.0015 7.30049 6.98314H16.8467C16.9495 7.00154 17.0416 7.05823 17.1042 7.1418C17.1669 7.22536 17.1956 7.32958 17.1844 7.43344V9.00943ZM18.2653 13.5649C18.3229 13.609 18.3695 13.6659 18.4017 13.7309C18.4338 13.796 18.4505 13.8676 18.4505 13.9401C18.4505 14.0127 18.4338 14.0843 18.4017 14.1494C18.3695 14.2144 18.3229 14.2712 18.2653 14.3154L16.9083 15.6753L18.2727 17.0397C18.3317 17.0829 18.3796 17.1394 18.4126 17.2046C18.4457 17.2698 18.4629 17.3419 18.4629 17.4149C18.4629 17.488 18.4457 17.5601 18.4126 17.6253C18.3796 17.6905 18.3317 17.747 18.2727 17.7902C18.2295 17.8491 18.173 17.8971 18.1078 17.9301C18.0426 17.9631 17.9706 17.9804 17.8975 17.9804C17.8244 17.9804 17.7523 17.9631 17.6871 17.9301C17.6219 17.8971 17.5654 17.8491 17.5222 17.7902L16.1586 16.4266L14.798 17.7902C14.7539 17.8478 14.6971 17.8944 14.632 17.9265C14.5669 17.9586 14.4954 17.9753 14.4228 17.9753C14.3502 17.9753 14.2786 17.9586 14.2136 17.9265C14.1485 17.8944 14.0917 17.8478 14.0476 17.7902C13.9886 17.7469 13.9407 17.6905 13.9076 17.6253C13.8746 17.5601 13.8574 17.488 13.8574 17.4149C13.8574 17.3418 13.8746 17.2698 13.9076 17.2046C13.9407 17.1394 13.9886 17.0829 14.0476 17.0397L15.4096 15.6776L14.0475 14.3154C13.9899 14.2713 13.9432 14.2145 13.9111 14.1494C13.879 14.0843 13.8623 14.0127 13.8623 13.9402C13.8623 13.8676 13.879 13.796 13.9111 13.731C13.9432 13.6659 13.9899 13.6091 14.0475 13.5649C14.0907 13.506 14.1472 13.4581 14.2124 13.425C14.2775 13.392 14.3496 13.3748 14.4227 13.3748C14.4958 13.3748 14.5678 13.392 14.633 13.425C14.6982 13.4581 14.7547 13.506 14.7979 13.5649L16.1601 14.9271L17.5223 13.5649C17.5665 13.5073 17.6233 13.4607 17.6883 13.4286C17.7534 13.3964 17.825 13.3797 17.8976 13.3797C17.9701 13.3797 18.0417 13.3964 18.1068 13.4286C18.1719 13.4607 18.2287 13.5073 18.2728 13.5649H18.2653ZM9.6797 8.01878V8.10134C9.68858 8.16055 9.68345 8.22101 9.66471 8.27788C9.64598 8.33474 9.61416 8.38642 9.57183 8.42875C9.52949 8.47109 9.47782 8.5029 9.42095 8.52163C9.36409 8.54037 9.30362 8.5455 9.24442 8.53662H8.22375C8.16454 8.5455 8.10408 8.54037 8.04721 8.52163C7.99035 8.5029 7.93867 8.47109 7.89634 8.42875C7.854 8.38642 7.82219 8.33474 7.80345 8.27788C7.78472 8.22101 7.77959 8.16055 7.78847 8.10134V8.01878C7.77959 7.95958 7.78472 7.89911 7.80345 7.84225C7.82219 7.78538 7.854 7.73371 7.89634 7.69137C7.93867 7.64904 7.99035 7.61722 8.04721 7.59849C8.10408 7.57975 8.16454 7.57462 8.22375 7.5835H9.26693C9.32439 7.5784 9.38227 7.58635 9.43622 7.60676C9.49018 7.62718 9.53882 7.65952 9.57852 7.70138C9.61821 7.74324 9.64793 7.79353 9.66545 7.8485C9.68297 7.90346 9.68784 7.96167 9.6797 8.01878Z" fill="white"/>
</svg>
