<svg width="14" height="14" viewBox="0 0 14 14" fill="none" xmlns="http://www.w3.org/2000/svg">
<path fill-rule="evenodd" clip-rule="evenodd" d="M3.10408 10.1026C2.88538 10.3213 2.88538 10.6759 3.10408 10.8946C3.32277 11.1133 3.67735 11.1133 3.89604 10.8946L7.00006 7.79055L10.1041 10.8946C10.3228 11.1133 10.6773 11.1133 10.896 10.8946C11.1147 10.6759 11.1147 10.3213 10.896 10.1026L7.79202 6.99859L10.896 3.89457C11.1147 3.67588 11.1147 3.32131 10.896 3.10261C10.6773 2.88392 10.3228 2.88392 10.1041 3.10261L7.00006 6.20663L3.89604 3.10261C3.67735 2.88392 3.32277 2.88392 3.10408 3.10261C2.88538 3.32131 2.88538 3.67588 3.10408 3.89457L6.2081 6.99859L3.10408 10.1026Z" fill="#FE3636"/>
</svg>
