<svg width="24" height="24" viewBox="0 0 24 24" fill="none" xmlns="http://www.w3.org/2000/svg">
<path d="M12 22.7992C6.03541 22.7992 1.20001 17.9638 1.20001 11.9992C1.20001 6.03462 6.03541 1.19922 12 1.19922C17.9646 1.19922 22.8 6.03462 22.8 11.9992C22.8 17.9638 17.9646 22.7992 12 22.7992Z" fill="#368CFE"/>
<path fill-rule="evenodd" clip-rule="evenodd" d="M7.9457 6H16.0543C17.1272 6 18 6.86314 18 7.92389V16.0761C18 17.1369 17.1272 18 16.0543 18H7.9457C6.87278 18 6 17.137 6 16.0761V7.92389C6 6.863 6.87278 6 7.9457 6ZM7.9457 17.0784H16.0543C16.3224 17.0763 16.579 16.97 16.7686 16.7825C16.9582 16.595 17.0656 16.3414 17.0678 16.0763V7.92374C17.0656 7.65862 16.9582 7.40497 16.7686 7.2175C16.579 7.03002 16.3224 6.92375 16.0543 6.9216H7.9457C7.67755 6.92375 7.421 7.03004 7.2314 7.21755C7.04179 7.40505 6.93433 7.65874 6.93219 7.92389V16.0763C6.93437 16.3414 7.04185 16.595 7.23145 16.7825C7.42105 16.97 7.67757 17.0763 7.9457 17.0784ZM12.9899 8.13045L14.8854 10.327V10.3276C14.9212 10.3677 14.9499 10.4156 14.9695 10.4686C14.9892 10.5216 14.9996 10.5786 15 10.6363C15.0004 10.694 14.9909 10.7512 14.972 10.8046C14.9531 10.8579 14.9252 10.9064 14.8899 10.9471C14.8548 10.9881 14.8129 11.0205 14.7669 11.0426C14.7208 11.0646 14.6714 11.0759 14.6216 11.0757C14.5716 11.076 14.522 11.0646 14.476 11.0422C14.4299 11.0198 14.3881 10.9868 14.3533 10.9453L13.1069 9.50107V13.7844C13.1066 14.1066 12.9961 14.4156 12.7995 14.6435C12.6029 14.8714 12.3363 14.9996 12.0582 15H9.37904C9.27851 15 9.1821 14.9537 9.11102 14.8714C9.03993 14.789 9 14.6773 9 14.5608C9 14.4443 9.03993 14.3326 9.11102 14.2502C9.1821 14.1678 9.27851 14.1216 9.37904 14.1216H12.0582C12.1353 14.1214 12.2092 14.0859 12.2637 14.0227C12.3182 13.9595 12.3489 13.8739 12.3489 13.7846V9.50107L11.1012 10.9468C11.066 10.9877 11.0241 11.0202 10.9781 11.0422C10.932 11.0643 10.8826 11.0756 10.8328 11.0754C10.7828 11.0757 10.7333 11.0643 10.6873 11.0419C10.6412 11.0195 10.5995 10.9866 10.5647 10.9451C10.5294 10.9041 10.5016 10.8554 10.4828 10.8018C10.464 10.7483 10.4546 10.6909 10.4552 10.633C10.4553 10.5757 10.4653 10.5189 10.4845 10.466C10.5038 10.4132 10.532 10.3654 10.5675 10.3253L12.4612 8.12874C12.4936 8.09158 12.5314 8.06133 12.5728 8.03938L12.5961 8.01243H12.6293L12.6394 8.00655H12.6593C12.6704 8.00375 12.6817 8.00224 12.6931 8.00206C12.7144 7.99931 12.7359 7.99931 12.7572 8.00206C12.7655 8.00227 12.7737 8.00315 12.7818 8.00469L12.8111 8.00717L12.8201 8.01243H12.8529L12.8778 8.04093C12.9194 8.06292 12.9574 8.09322 12.9899 8.13045Z" fill="white"/>
</svg>
