<svg width="24" height="24" viewBox="0 0 24 24" fill="none" xmlns="http://www.w3.org/2000/svg">
<path d="M12 22.8C6.03535 22.8 1.19995 17.9646 1.19995 12C1.19995 6.03541 6.03535 1.20001 12 1.20001C17.9646 1.20001 22.7999 6.03541 22.7999 12C22.7999 17.9646 17.9646 22.8 12 22.8Z" fill="#368CFE"/>
<path d="M12.9717 12.5552C13.0821 12.5552 13.188 12.5113 13.2661 12.4332C13.3442 12.3552 13.3881 12.2492 13.3881 12.1388C13.3881 12.0284 13.3442 11.9224 13.2661 11.8443C13.188 11.7663 13.0821 11.7224 12.9717 11.7224H11.6169L12.7051 10.6369C12.7536 10.6008 12.7938 10.5545 12.8227 10.5014C12.8516 10.4483 12.8688 10.3895 12.8728 10.3292C12.8769 10.2688 12.8679 10.2083 12.8464 10.1518C12.8249 10.0952 12.7914 10.044 12.7482 10.0016C12.705 9.95927 12.6532 9.92674 12.5962 9.9063C12.5393 9.88586 12.4786 9.87799 12.4183 9.88322C12.3581 9.88846 12.2997 9.90668 12.2471 9.93662C12.1945 9.96657 12.1491 10.0075 12.1138 10.0567L11.0284 11.1338L9.94293 10.0567C9.90523 10.0132 9.85898 9.97792 9.80704 9.95307C9.75511 9.92822 9.69862 9.91433 9.64108 9.91227C9.58354 9.91021 9.5262 9.92002 9.47262 9.9411C9.41905 9.96218 9.37039 9.99407 9.32968 10.0348C9.28896 10.0755 9.25708 10.1241 9.236 10.1777C9.21492 10.2313 9.20511 10.2886 9.20717 10.3462C9.20922 10.4037 9.22311 10.4602 9.24797 10.5121C9.27282 10.5641 9.3081 10.6103 9.35162 10.648L10.4399 11.7224H9.08512C8.97468 11.7224 8.86876 11.7663 8.79067 11.8443C8.71257 11.9224 8.6687 12.0284 8.6687 12.1388C8.6687 12.2492 8.71257 12.3552 8.79067 12.4332C8.86876 12.5113 8.97468 12.5552 9.08512 12.5552H10.612V13.388H9.08512C8.97468 13.388 8.86876 13.4319 8.79067 13.51C8.71257 13.5881 8.6687 13.694 8.6687 13.8045C8.6687 13.9149 8.71257 14.0208 8.79067 14.0989C8.86876 14.177 8.97468 14.2209 9.08512 14.2209H10.612V15.4701C10.612 15.5806 10.6558 15.6865 10.7339 15.7646C10.812 15.8427 10.9179 15.8865 11.0284 15.8865C11.1388 15.8865 11.2447 15.8427 11.3228 15.7646C11.4009 15.6865 11.4448 15.5806 11.4448 15.4701V14.2209H12.9717C13.0821 14.2209 13.188 14.177 13.2661 14.0989C13.3442 14.0208 13.3881 13.9149 13.3881 13.8045C13.3881 13.694 13.3442 13.5881 13.2661 13.51C13.188 13.4319 13.0821 13.388 12.9717 13.388H11.4448V12.5552H12.9717Z" fill="white"/>
<path d="M14.7761 8.39112C14.8125 8.39112 14.8486 8.3983 14.8823 8.41225C14.916 8.4262 14.9466 8.44665 14.9724 8.47243C14.9981 8.49821 15.0186 8.52881 15.0325 8.56249C15.0465 8.59617 15.0537 8.63227 15.0537 8.66873V17.2746C15.0537 17.3111 15.0465 17.3472 15.0325 17.3809C15.0186 17.4145 14.9981 17.4451 14.9724 17.4709C14.9466 17.4967 14.916 17.5172 14.8823 17.5311C14.8486 17.5451 14.8125 17.5522 14.7761 17.5522H7.2806C7.24415 17.5522 7.20805 17.5451 7.17437 17.5311C7.14069 17.5172 7.11008 17.4967 7.0843 17.4709C7.05853 17.4451 7.03808 17.4145 7.02413 17.3809C7.01018 17.3472 7.003 17.3111 7.003 17.2746V8.66873C7.003 8.63227 7.01018 8.59617 7.02413 8.56249C7.03808 8.52881 7.05853 8.49821 7.0843 8.47243C7.11008 8.44665 7.14069 8.4262 7.17437 8.41225C7.20805 8.3983 7.24415 8.39112 7.2806 8.39112H14.7761ZM14.7761 7.55829H7.2806C6.9861 7.55829 6.70365 7.67528 6.49541 7.88353C6.28716 8.09178 6.17017 8.37422 6.17017 8.66873V17.2746C6.17017 17.4205 6.19889 17.5648 6.25469 17.6996C6.3105 17.8343 6.39229 17.9567 6.49541 18.0598C6.59852 18.1629 6.72093 18.2447 6.85566 18.3005C6.99038 18.3563 7.13478 18.3851 7.2806 18.3851H14.7761C14.9219 18.3851 15.0663 18.3563 15.201 18.3005C15.3357 18.2447 15.4582 18.1629 15.5613 18.0598C15.6644 17.9567 15.7462 17.8343 15.802 17.6996C15.8578 17.5648 15.8865 17.4205 15.8865 17.2746V8.66873C15.8865 8.5229 15.8578 8.37851 15.802 8.24378C15.7462 8.10906 15.6644 7.98664 15.5613 7.88353C15.4582 7.78041 15.3357 7.69862 15.201 7.64282C15.0663 7.58701 14.9219 7.55829 14.7761 7.55829V7.55829Z" fill="white"/>
<path d="M16.7194 5.61493H9.22396C9.07814 5.61493 8.93374 5.64365 8.79902 5.69946C8.66429 5.75526 8.54188 5.83706 8.43877 5.94017C8.33565 6.04328 8.25386 6.1657 8.19805 6.30042C8.14225 6.43515 8.11353 6.57954 8.11353 6.72537V6.86417C8.11353 6.97461 8.1574 7.08053 8.23549 7.15862C8.31358 7.23671 8.4195 7.28059 8.52994 7.28059C8.64038 7.28059 8.7463 7.23671 8.82439 7.15862C8.90248 7.08053 8.94635 6.97461 8.94635 6.86417V6.72537C8.94635 6.68891 8.95354 6.65281 8.96749 6.61913C8.98144 6.58545 9.00189 6.55485 9.02766 6.52907C9.05344 6.50329 9.08405 6.48284 9.11773 6.46889C9.15141 6.45494 9.18751 6.44776 9.22396 6.44776H16.7194C16.7559 6.44776 16.792 6.45494 16.8257 6.46889C16.8593 6.48284 16.8899 6.50329 16.9157 6.52907C16.9415 6.55485 16.962 6.58545 16.9759 6.61913C16.9899 6.65281 16.997 6.68891 16.997 6.72537V15.3313C16.997 15.4049 16.9678 15.4755 16.9157 15.5276C16.8637 15.5796 16.7931 15.6089 16.7194 15.6089H16.5806C16.4702 15.6089 16.3643 15.6527 16.2862 15.7308C16.2081 15.8089 16.1642 15.9149 16.1642 16.0253C16.1642 16.1357 16.2081 16.2416 16.2862 16.3197C16.3643 16.3978 16.4702 16.4417 16.5806 16.4417H16.7194C16.8652 16.4417 17.0096 16.413 17.1444 16.3572C17.2791 16.3014 17.4015 16.2196 17.5046 16.1165C17.6077 16.0134 17.6895 15.8909 17.7453 15.7562C17.8011 15.6215 17.8299 15.4771 17.8299 15.3313V6.72537C17.8299 6.57954 17.8011 6.43515 17.7453 6.30042C17.6895 6.1657 17.6077 6.04328 17.5046 5.94017C17.4015 5.83706 17.2791 5.75526 17.1444 5.69946C17.0096 5.64365 16.8652 5.61493 16.7194 5.61493V5.61493Z" fill="white"/>
</svg>
