<svg width="24" height="24" viewBox="0 0 24 24" fill="none" xmlns="http://www.w3.org/2000/svg">
<path d="M12 22.8C6.03535 22.8 1.19995 17.9646 1.19995 12C1.19995 6.03541 6.03535 1.20001 12 1.20001C17.9646 1.20001 22.7999 6.03541 22.7999 12C22.7999 17.9646 17.9646 22.8 12 22.8Z" fill="#368CFE"/>
<path d="M16.6783 12.1412L18.2019 14.7709C18.6348 15.5175 18.3921 16.4824 17.6594 16.9234C17.4693 17.0377 17.2581 17.1089 17.0411 17.1334L16.8754 17.1415H14.5666V18.1985C14.5665 18.2401 14.554 18.2807 14.5308 18.3152C14.5075 18.3497 14.4746 18.3765 14.4361 18.3922C14.3976 18.408 14.3553 18.412 14.3146 18.4036C14.2738 18.3953 14.2365 18.3751 14.2073 18.3455L12.6579 16.7647C12.6194 16.7254 12.5979 16.6727 12.5979 16.6177C12.5979 16.5627 12.6194 16.5099 12.6579 16.4707L14.2073 14.8899C14.2364 14.8599 14.2739 14.8393 14.3148 14.8308C14.3558 14.8222 14.3983 14.8261 14.437 14.8419C14.4758 14.8577 14.5089 14.8846 14.5322 14.9194C14.5555 14.9541 14.5679 14.995 14.5678 15.0369L14.5666 16.095H16.8766C16.9683 16.0949 17.0582 16.0699 17.1368 16.0227C17.2411 15.9592 17.3202 15.8614 17.3606 15.7461C17.401 15.6309 17.4002 15.5051 17.3584 15.3904L17.3176 15.3052L15.7939 12.6755L16.6783 12.1424V12.1412ZM8.42992 11.4015L8.45792 11.4622V11.4645L9.02725 13.6275C9.03778 13.6677 9.03616 13.7101 9.02259 13.7494C9.00902 13.7886 8.98411 13.823 8.95102 13.8481C8.91792 13.8732 8.87813 13.8879 8.83667 13.8904C8.79521 13.8929 8.75394 13.883 8.71809 13.862L7.82209 13.3347L6.68225 15.304C6.63519 15.3848 6.61024 15.4765 6.60992 15.57C6.60992 15.8267 6.79192 16.0414 7.03109 16.0857L7.12442 16.0939H10.3444V17.1415H7.12325C6.27159 17.1415 5.58325 16.438 5.58325 15.57C5.58325 15.346 5.62992 15.1244 5.72092 14.9202L5.79792 14.7709L6.93309 12.8109L6.02775 12.2789C5.99169 12.2581 5.96263 12.227 5.94424 12.1897C5.92585 12.1524 5.91897 12.1104 5.92447 12.0692C5.92997 12.0279 5.9476 11.9892 5.97513 11.958C6.00266 11.9268 6.03884 11.9045 6.07909 11.8939L8.20009 11.3152C8.24277 11.3034 8.2881 11.3054 8.32959 11.3209C8.37108 11.3364 8.40661 11.3646 8.43109 11.4015H8.42992ZM12.7839 5.80153C12.9624 5.91003 13.1176 6.05353 13.2401 6.22269L13.3264 6.35569L14.6109 8.57353L15.5023 8.04853C15.5382 8.0274 15.5796 8.01746 15.6212 8.01996C15.6629 8.02246 15.7028 8.03729 15.736 8.06257C15.7691 8.08784 15.794 8.12242 15.8074 8.16189C15.8209 8.20136 15.8223 8.24393 15.8114 8.28419L15.2433 10.4472C15.2363 10.474 15.2242 10.4991 15.2075 10.5211C15.1909 10.5432 15.17 10.5618 15.1462 10.5757C15.1223 10.5897 15.096 10.5989 15.0686 10.6026C15.0412 10.6064 15.0133 10.6047 14.9866 10.5977V10.5977L12.8633 10.0167C12.8233 10.0059 12.7875 9.98351 12.7602 9.9524C12.733 9.9213 12.7155 9.88283 12.71 9.84184C12.7045 9.80084 12.7113 9.75914 12.7294 9.72196C12.7475 9.68478 12.7762 9.65379 12.8119 9.63286L13.7219 9.09736L12.4421 6.88886C12.402 6.81722 12.3451 6.75641 12.2762 6.71166C12.2074 6.66692 12.1287 6.63957 12.047 6.632C11.9652 6.62442 11.8829 6.63683 11.807 6.66817C11.7311 6.6995 11.664 6.74881 11.6114 6.81186L11.5578 6.88886L9.91509 9.72386L9.03075 9.19069L10.6734 6.35569C10.7738 6.1789 10.9086 6.02399 11.0698 5.9001C11.231 5.7762 11.4154 5.68583 11.6121 5.63429C11.8088 5.58276 12.0138 5.57111 12.215 5.60003C12.4163 5.62895 12.6097 5.69786 12.7839 5.80269V5.80153Z" fill="white"/>
</svg>
