<svg width="24" height="24" viewBox="0 0 24 24" fill="none" xmlns="http://www.w3.org/2000/svg">
<path d="M12 22.7992C6.03535 22.7992 1.19995 17.9638 1.19995 11.9992C1.19995 6.03462 6.03535 1.19922 12 1.19922C17.9646 1.19922 22.7999 6.03462 22.7999 11.9992C22.7999 17.9638 17.9646 22.7992 12 22.7992Z" fill="#368CFE"/>
<path d="M13.7275 12.4643L14.415 11.6315L15.3267 12.3841L14.5216 13.3406C14.2881 13.6178 14.3237 14.0318 14.601 14.2652C14.7191 14.365 14.8687 14.4196 15.0233 14.4195C15.2102 14.4195 15.3958 14.34 15.5256 14.1858L17.979 11.2714C18.2124 10.9942 18.1769 10.5802 17.8996 10.3468C17.6224 10.1134 17.2084 10.1489 16.9749 10.4262L16.172 11.38L15.2505 10.6193L15.9277 9.79892C16.3331 9.30775 16.523 8.68811 16.4624 8.05412C16.4017 7.42013 16.0979 6.8477 15.6067 6.44226C15.1155 6.03682 14.4959 5.84692 13.8619 5.90755C13.2281 5.96815 12.6559 6.27185 12.2505 6.76273L12.25 6.76322L11.1554 8.08927C11.1553 8.0894 11.1552 8.08954 11.1551 8.08968L6.13018 14.1772C6.03881 14.2879 5.98625 14.4254 5.98056 14.5689L5.86722 17.4208C5.86371 17.5091 5.87807 17.5972 5.90945 17.6798C5.94082 17.7625 5.98856 17.8379 6.04979 17.9016C6.11103 17.9653 6.18451 18.016 6.26581 18.0507C6.34712 18.0853 6.43459 18.1031 6.52296 18.1031C6.5729 18.1031 6.62319 18.0974 6.6728 18.0858L9.45157 17.434C9.59131 17.4012 9.71645 17.3236 9.80782 17.2129L13.7275 12.4644L13.7275 12.4643V12.4643ZM13.9868 7.21408C14.2719 7.18669 14.5504 7.2722 14.7712 7.45444C14.992 7.6367 15.1286 7.89402 15.1558 8.17903C15.1831 8.46403 15.0977 8.74258 14.9155 8.96337L14.2383 9.78375L12.5851 8.4191L13.2623 7.59874C13.4445 7.37794 13.7018 7.24133 13.9868 7.21408V7.21408ZM8.93646 16.2067L7.21294 16.611L7.28324 14.8421L11.0619 10.2643L11.0621 10.2642L11.7496 9.4313L13.4028 10.796L12.7153 11.6288L12.7153 11.6288L8.93646 16.2067ZM17.3403 16.6539H11.6561C11.2936 16.6539 10.9998 16.9477 10.9998 17.3102C10.9998 17.6726 11.2936 17.9664 11.6561 17.9664H17.3403C17.7027 17.9664 17.9965 17.6726 17.9965 17.3102C17.9965 16.9477 17.7027 16.6539 17.3403 16.6539Z" fill="white"/>
</svg>
